<svg xmlns="http://www.w3.org/2000/svg" version="1.1" xmlns:xlink="http://www.w3.org/1999/xlink" xmlns:svgjs="http://svgjs.dev/svgjs" width="1000" height="750" viewBox="0 0 1000 750"><rect width="1000" height="750" fill="#000000"></rect><g transform="matrix(0.834,0,0,0.834,83,40.149)"><svg viewBox="0 0 448 360" data-background-color="#1b4571" preserveAspectRatio="xMidYMid meet" height="803" width="1000" xmlns="http://www.w3.org/2000/svg" xmlns:xlink="http://www.w3.org/1999/xlink"><g id="tight-bounds" transform="matrix(1,0,0,1,0,0)"><svg viewBox="0 0 448 360" height="360" width="448"><g><svg></svg></g><g><svg viewBox="0 0 448 360" height="360" width="448"><g><path xmlns="http://www.w3.org/2000/svg" d="M193.855 44.683c1.378 0 2.494 1.116 2.495 2.494 0 1.378-1.116 2.494-2.495 2.495h-23.846l-17.167 17.167c-0.973 0.973-2.551 0.973-3.53 0-0.973-0.973-0.973-2.551 0-3.529l13.644-13.645h-40.378c-11.518 0-19.151 2.688-23.815 8.113-4.739 5.519-6.66 14.056-6.66 25.63 0 0.069 0 0.137-0.006 0.206l0.212 36.692 14.692-14.692c0.973-0.973 2.551-0.973 3.53 0 0.973 0.973 0.973 2.551 0 3.53l-18.178 18.178c0.206 35.832 0.193 71.358-0.013 107.19 25.486 25.2 50.617 50.312 75.811 75.791h25.38c1.378 0 2.494 1.116 2.495 2.495 0 1.378-1.116 2.494-2.495 2.494h-20.448l25.942 26.241 0.006-0.006c8.188 8.188 15.577 12.859 22.824 13.413 7.146 0.543 14.442-2.956 22.586-11.093l28.555-28.555h-20.722c-1.378 0-2.494-1.116-2.495-2.494 0-1.378 1.116-2.494 2.495-2.495h25.711l16.625-16.625c0.973-0.973 2.551-0.973 3.529 0 0.973 0.973 0.973 2.551 0 3.53l-13.101 13.102h40.377c11.518 0 19.151-2.688 23.815-8.113 4.739-5.519 6.66-14.056 6.66-25.63h0.013l-0.212-36.898-16.014 16.014c-0.973 0.973-2.551 0.973-3.53 0-0.973-0.973-0.973-2.551 0-3.53l19.5-19.5c-0.206-35.832-0.193-71.358 0.013-107.19-25.486-25.2-50.617-50.312-75.811-75.791h-26.147c-1.378 0-2.494-1.116-2.495-2.495 0-1.378 1.116-2.494 2.495-2.494h21.215l-25.824-26.123c-0.044-0.037-0.081-0.075-0.124-0.112-8.188-8.188-15.577-12.859-22.824-13.413-7.146-0.543-14.442 2.956-22.586 11.093l-28.555 28.555h18.858zM122.578 44.683h45.367l32.078-32.078c9.248-9.248 17.81-13.195 26.484-12.534 8.568 0.649 16.956 5.824 25.985 14.854 0.05 0.05 0.094 0.094 0.137 0.143l29.278 29.615h43.508c13.071 0 21.919 3.268 27.594 9.871 5.6 6.517 7.864 16.101 7.864 28.867 0 0.081-0.006 0.156-0.012 0.23l-0.225 39.742 28.43 28.112 0.006-0.006c9.03 9.03 14.206 17.411 14.854 25.985 0.661 8.674-3.293 17.236-12.534 26.484l-30.768 30.768 0.237 41.843h0.012c0 12.765-2.27 22.35-7.864 28.867-5.675 6.604-14.524 9.872-27.594 9.871h-45.366l-32.078 32.078c-9.248 9.248-17.81 13.195-26.484 12.534-8.568-0.649-16.956-5.824-25.985-14.854l0.006-0.006-29.421-29.758h-43.509c-13.071 0-21.919-3.268-27.594-9.872-5.6-6.517-7.864-16.101-7.863-28.866h0.012l0.231-39.972-28.293-27.969c-0.05-0.044-0.1-0.087-0.143-0.137-9.03-9.03-14.206-17.411-14.854-25.985-0.661-8.674 3.293-17.236 12.534-26.484l30.768-30.768-0.237-41.607c-0.006-0.075-0.012-0.156-0.012-0.23 0-12.765 2.27-22.35 7.864-28.867 5.675-6.604 14.524-9.872 27.594-9.871zM87.682 179.997l-0.274-47.724-27.276 27.276c-8.138 8.138-11.636 15.44-11.094 22.587 0.549 7.246 5.226 14.642 13.413 22.823 0.037 0.037 0.081 0.081 0.113 0.125l24.837 24.551 0.281-49.644zM92.303 241.483l-0.2 35.09h0.013c0 11.58 1.921 20.117 6.66 25.63 4.664 5.432 12.297 8.113 23.815 8.113h38.576l-33.55-33.936-35.308-34.903zM325.415 49.672h-38.575l33.549 33.936 35.308 34.902 0.2-34.884c-0.006-0.069-0.006-0.137-0.007-0.205 0-11.58-1.921-20.117-6.66-25.63-4.664-5.432-12.297-8.113-23.815-8.113zM360.599 130.352l-0.281 49.645 0.274 47.724 27.276-27.276c8.138-8.138 11.636-15.44 11.094-22.587-0.549-7.252-5.226-14.642-13.413-22.824l0.006-0.006-24.956-24.669z" fill="#ffffff" fill-rule="nonzero" stroke="none" stroke-width="1" stroke-linecap="butt" stroke-linejoin="miter" stroke-miterlimit="10" stroke-dasharray="" stroke-dashoffset="0" font-family="none" font-weight="none" font-size="none" text-anchor="none" style="mix-blend-mode: normal" data-fill-palette-color="tertiary"></path></g><g transform="matrix(1,0,0,1,115.07013921530104,90)"><svg viewBox="0 0 217.85972156939792 180" height="180" width="217.85972156939792"><g><svg viewBox="0 0 217.85972156939792 180" height="180" width="217.85972156939792"><g><svg viewBox="0 0 224 185.07321917767302" height="180" width="217.85972156939792"><g><svg viewBox="0 0 224 185.07321917767302" height="185.07321917767302" width="224"><g id="textblocktransform"><svg viewBox="0 0 224 185.07321917767302" height="185.07321917767302" width="224" id="textblock"><g><svg viewBox="0 0 224 120.82280648735771" height="120.82280648735771" width="224"><g transform="matrix(1,0,0,1,0,0)"><svg width="224" viewBox="-0.019999980926513672 -38.939998626708984 97.93999481201172 53.290000915527344" height="120.82280648735771" data-palette-color="#ffffff"><path d="M17.26-15.48L16.06-1.95Q16.04-1.73 15.98-1.53 15.92-1.32 15.65-1.2L15.65-1.2Q15.55-1.15 14.69-0.84 13.82-0.54 12.68-0.13 11.55 0.27 10.44 0.67 9.33 1.07 8.74 1.29L8.74 1.29Q8.45 1.42 8.02 1.55 7.59 1.68 7.18 1.68L7.18 1.68Q6.84 1.68 6.58 1.51 6.32 1.34 6.32 0.88L6.32 0.88Q6.32-0.2 6.38-1.09 6.45-1.98 6.54-2.95 6.64-3.93 6.75-5.11 6.86-6.3 6.96-7.93L6.96-7.93Q7.08-10.08 7.23-12.07 7.37-14.06 7.52-16.21L7.52-16.21 7.86-20.39Q7.93-21.41 8.01-22.47 8.08-23.54 8.15-24.66L8.15-24.66 8.42-27.64Q8.42-27.69 8.28-27.69L8.28-27.69Q8.08-27.69 7.62-27.6 7.15-27.51 6.52-27.39 5.88-27.27 5.11-27.14 4.35-27 3.54-26.88L3.54-26.88Q3.34-26.88 3.16-26.97 2.98-27.05 2.98-27.17L2.98-27.17Q2.98-27.27 3.03-27.32L3.03-27.32 6.98-34.23Q8.33-34.52 9.88-34.83 11.43-35.13 13.21-35.38 14.99-35.62 16.99-35.78 18.99-35.94 21.24-35.94L21.24-35.94Q23.78-35.89 26.18-35.44 28.59-34.99 30.46-33.92 32.32-32.86 33.46-31.04 34.59-29.22 34.59-26.44L34.59-26.44Q34.59-24.9 34.07-23.61 33.54-22.31 32.73-21.28 31.91-20.24 30.93-19.45 29.96-18.65 29.06-18.09 28.17-17.53 27.49-17.2 26.81-16.87 26.56-16.77L26.56-16.77Q26.56-16.72 26.6-16.65 26.64-16.58 26.76-16.37 26.88-16.16 27.11-15.78 27.34-15.41 27.71-14.75L27.71-14.75Q28.1-14.16 28.64-13.18 29.17-12.21 29.92-10.88 30.66-9.55 31.64-7.91 32.62-6.27 33.89-4.39L33.89-4.39Q34.3-4.03 34.84-3.94 35.38-3.86 35.84-3.85 36.3-3.83 36.62-3.8 36.94-3.76 36.94-3.49L36.94-3.49Q36.94-3.3 36.54-3.04 36.13-2.78 35.6-2.51 35.06-2.25 34.51-2 33.96-1.76 33.67-1.61L33.67-1.61Q33.08-1.32 32.45-1.05 31.81-0.78 31.08-0.45 30.35-0.12 29.46 0.32 28.56 0.76 27.44 1.37L27.44 1.37Q27.15 1.54 26.89 1.6 26.64 1.66 26.42 1.66L26.42 1.66Q25.98 1.66 25.66 1.45 25.34 1.25 25.12 0.95 24.9 0.66 24.77 0.35 24.63 0.05 24.54-0.15L24.54-0.15 17.26-15.48ZM18.53-28.86L17.55-18.48Q18.8-18.48 20.14-19.12 21.48-19.75 22.58-20.75 23.68-21.75 24.39-23.02 25.1-24.29 25.1-25.59L25.1-25.59Q25.1-29.13 20.85-29.13L20.85-29.13Q20.04-29.13 19.51-29.02 18.97-28.91 18.53-28.86L18.53-28.86ZM50.93 1.27L50.93 1.27Q47.48 1.27 44.88 0.15 42.28-0.98 40.52-2.84 38.77-4.71 37.89-7.14 37.01-9.57 37.01-12.18L37.01-12.18Q37.01-14.79 37.86-17.15 38.72-19.51 40.26-21.37 41.79-23.24 43.94-24.5 46.09-25.76 48.68-26.2L48.68-26.2Q49.07-26.22 49.07-26.37L49.07-26.37Q49.07-26.64 49.01-26.87 48.95-27.1 48.95-27.27L48.95-27.27Q48.95-27.54 49.05-27.64 49.14-27.73 49.27-27.73L49.27-27.73Q53.93-27.73 57.2-26.67 60.47-25.61 62.52-23.78 64.57-21.95 65.5-19.46 66.43-16.97 66.43-14.11L66.43-14.11Q66.43-10.47 65.21-7.62 63.99-4.76 61.87-2.78 59.76-0.81 56.94 0.23 54.12 1.27 50.93 1.27ZM46.41-12.45L46.41-12.45Q46.41-11.13 46.69-9.84 46.97-8.54 47.62-7.5 48.26-6.45 49.31-5.8 50.36-5.15 51.93-5.15L51.93-5.15Q53.05-5.2 53.89-5.65 54.73-6.1 55.34-6.82 55.95-7.54 56.36-8.45 56.76-9.35 56.99-10.31 57.22-11.28 57.32-12.21 57.42-13.13 57.42-13.89L57.42-13.89Q57.42-15.16 57.04-16.38 56.66-17.6 55.93-18.53 55.2-19.46 54.11-20.03 53.02-20.61 51.61-20.61L51.61-20.61Q50.14-20.61 49.14-19.74 48.14-18.87 47.54-17.6 46.95-16.33 46.68-14.93 46.41-13.53 46.41-12.45ZM84.57-0.95L79.19 11.13Q79.15 11.23 79.08 11.29 79.02 11.35 78.88 11.35L78.88 11.35Q78.73 11.35 78.66 11.33L78.66 11.33Q77.78 11.01 77 10.79 76.22 10.57 75.45 10.39 74.68 10.21 73.87 10.05 73.07 9.89 72.16 9.69L72.16 9.69Q71.92 9.64 71.78 9.53 71.65 9.42 71.65 9.16L71.65 9.16Q71.65 9.08 71.74 8.8 71.82 8.52 72.16 7.65 72.5 6.79 73.21 5.14 73.92 3.49 75.17 0.71L75.17 0.71Q74.8-0.51 74.34-2.22 73.87-3.93 73.35-5.96 72.82-7.98 72.26-10.24 71.7-12.5 71.13-14.81 70.55-17.11 69.98-19.37 69.4-21.63 68.87-23.68L68.87-23.68Q68.7-24.07 68.67-24.33 68.65-24.58 68.65-24.76L68.65-24.76Q68.65-25.1 69.04-25.2L69.04-25.2Q70.94-25.61 72.99-26.06 75.04-26.51 76.87-27.22L76.87-27.22Q76.95-27.25 77.09-27.25L77.09-27.25Q77.41-27.25 77.44-27L77.44-27 80.41-10.6Q80.51-10.89 80.79-11.66 81.07-12.43 81.45-13.5 81.83-14.58 82.29-15.87 82.76-17.16 83.25-18.51 83.74-19.85 84.21-21.18 84.69-22.51 85.1-23.66 85.52-24.8 85.82-25.68 86.13-26.56 86.3-27L86.3-27Q86.4-27.25 86.66-27.25L86.66-27.25Q86.74-27.25 86.76-27.23 86.79-27.22 86.86-27.22L86.86-27.22Q88.69-26.51 90.62-26.06 92.55-25.61 94.45-25.2L94.45-25.2Q94.92-25.1 94.92-24.66L94.92-24.66Q94.92-24.34 94.62-23.68L94.62-23.68 84.57-0.95Z" opacity="1" transform="matrix(1,0,0,1,0,0)" fill="#ffffff" class="undefined-text-0" data-fill-palette-color="primary" id="text-0"></path></svg></g></svg></g><g transform="matrix(1,0,0,1,2.5,136.7678736053188)"><svg viewBox="0 0 219 48.305345572354206" height="48.305345572354206" width="219"><g transform="matrix(1,0,0,1,0,0)"><svg width="219" viewBox="-1 -38.349998474121094 186.1999969482422 41.849998474121094" height="48.305345572354206" data-palette-color="#ffffff"><path d="M7.85 0L2.25 0Q2 0 2-0.25L2-0.25 2.1-34.6Q2.1-34.8 2.3-34.8L2.3-34.8 11.9-34.8Q16.5-34.8 19.18-32 21.85-29.2 21.85-24.4L21.85-24.4Q21.85-20.85 20.45-18.25 19.05-15.65 16.8-14.25 14.55-12.85 11.9-12.85L11.9-12.85 8.1-12.85 8.1-0.25Q8.1 0 7.85 0L7.85 0ZM8.1-28.8L8.1-18.9 11.9-18.9Q13.5-18.9 14.68-20.43 15.85-21.95 15.85-24.4L15.85-24.4Q15.85-26.35 14.8-27.6 13.75-28.85 11.9-28.85L11.9-28.85 8.1-28.8ZM34 0.5L34 0.5Q31.3 0.5 29.08-0.88 26.85-2.25 25.5-4.53 24.15-6.8 24.15-9.55L24.15-9.55 24.2-25.4Q24.2-28.15 25.53-30.4 26.85-32.65 29.1-34 31.35-35.35 34-35.35L34-35.35Q36.7-35.35 38.9-34 41.1-32.65 42.43-30.4 43.75-28.15 43.75-25.4L43.75-25.4 43.8-9.55Q43.8-6.8 42.48-4.53 41.15-2.25 38.93-0.88 36.7 0.5 34 0.5ZM34-5.55L34-5.55Q35.5-5.55 36.63-6.78 37.75-8 37.75-9.55L37.75-9.55 37.7-25.4Q37.7-27.05 36.65-28.2 35.6-29.35 34-29.35L34-29.35Q32.45-29.35 31.35-28.23 30.25-27.1 30.25-25.4L30.25-25.4 30.25-9.55Q30.25-7.9 31.35-6.73 32.45-5.55 34-5.55ZM53.45 0L47.8 0Q47.6 0 47.6-0.25L47.6-0.25 47.7-34.6Q47.7-34.8 47.9-34.8L47.9-34.8 58-34.8Q60.7-34.8 62.98-33.48 65.25-32.15 66.6-29.93 67.95-27.7 67.95-24.9L67.95-24.9Q67.95-23.05 67.4-21.58 66.85-20.1 66.1-19.07 65.35-18.05 64.75-17.55L64.75-17.55Q67.45-14.55 67.45-10.5L67.45-10.5 67.5-0.25Q67.5 0 67.25 0L67.25 0 61.6 0Q61.4 0 61.4-0.15L61.4-0.15 61.4-10.5Q61.4-12.3 60.13-13.63 58.85-14.95 57-14.95L57-14.95 53.7-14.95 53.65-0.25Q53.65 0 53.45 0L53.45 0ZM53.7-28.8L53.7-20.95 58-20.95Q59.55-20.95 60.75-22.1 61.95-23.25 61.95-24.9L61.95-24.9Q61.95-26.5 60.78-27.65 59.6-28.8 58-28.8L58-28.8 53.7-28.8ZM81.35 0L75.7 0Q75.5 0 75.5-0.25L75.5-0.25 75.5-28.75 69-28.75Q68.75-28.75 68.75-29L68.75-29 68.8-34.6Q68.8-34.8 69-34.8L69-34.8 88-34.8Q88.25-34.8 88.25-34.6L88.25-34.6 88.25-29Q88.25-28.75 88.05-28.75L88.05-28.75 81.5-28.75 81.55-0.25Q81.55 0 81.35 0L81.35 0ZM96.55 0L90.95 0Q90.7 0 90.7-0.25L90.7-0.25 90.8-34.6Q90.8-34.8 91-34.8L91-34.8 107-34.8Q107.25-34.8 107.25-34.6L107.25-34.6 107.25-28.95Q107.25-28.75 107.05-28.75L107.05-28.75 96.8-28.75 96.8-21 107.05-21Q107.25-21 107.25-20.75L107.25-20.75 107.3-15.1Q107.3-14.9 107.05-14.9L107.05-14.9 96.8-14.9 96.8-0.25Q96.8 0 96.55 0L96.55 0ZM119.2 0.5L119.2 0.5Q116.5 0.5 114.28-0.88 112.05-2.25 110.7-4.53 109.35-6.8 109.35-9.55L109.35-9.55 109.4-25.4Q109.4-28.15 110.73-30.4 112.05-32.65 114.3-34 116.55-35.35 119.2-35.35L119.2-35.35Q121.9-35.35 124.1-34 126.3-32.65 127.63-30.4 128.95-28.15 128.95-25.4L128.95-25.4 129-9.55Q129-6.8 127.68-4.53 126.35-2.25 124.13-0.88 121.9 0.5 119.2 0.5ZM119.2-5.55L119.2-5.55Q120.7-5.55 121.83-6.78 122.95-8 122.95-9.55L122.95-9.55 122.9-25.4Q122.9-27.05 121.85-28.2 120.8-29.35 119.2-29.35L119.2-29.35Q117.65-29.35 116.55-28.23 115.45-27.1 115.45-25.4L115.45-25.4 115.45-9.55Q115.45-7.9 116.55-6.73 117.65-5.55 119.2-5.55ZM149.15 0L133 0Q132.8 0 132.8-0.25L132.8-0.25 132.85-34.55Q132.85-34.8 133.1-34.8L133.1-34.8 138.65-34.8Q138.9-34.8 138.9-34.55L138.9-34.55 138.85-6.15 149.15-6.15Q149.4-6.15 149.4-5.9L149.4-5.9 149.4-0.25Q149.4 0 149.15 0L149.15 0ZM158.55 0L152.9 0Q152.65 0 152.65-0.25L152.65-0.25 152.7-34.6Q152.7-34.8 152.9-34.8L152.9-34.8 158.5-34.8Q158.7-34.8 158.7-34.6L158.7-34.6 158.75-0.25Q158.75 0 158.55 0L158.55 0ZM172.4 0.5L172.4 0.5Q169.7 0.5 167.47-0.88 165.25-2.25 163.9-4.53 162.55-6.8 162.55-9.55L162.55-9.55 162.6-25.4Q162.6-28.15 163.93-30.4 165.25-32.65 167.5-34 169.75-35.35 172.4-35.35L172.4-35.35Q175.1-35.35 177.3-34 179.5-32.65 180.83-30.4 182.15-28.15 182.15-25.4L182.15-25.4 182.2-9.55Q182.2-6.8 180.88-4.53 179.55-2.25 177.33-0.88 175.1 0.5 172.4 0.5ZM172.4-5.55L172.4-5.55Q173.9-5.55 175.03-6.78 176.15-8 176.15-9.55L176.15-9.55 176.1-25.4Q176.1-27.05 175.05-28.2 174-29.35 172.4-29.35L172.4-29.35Q170.85-29.35 169.75-28.23 168.65-27.1 168.65-25.4L168.65-25.4 168.65-9.55Q168.65-7.9 169.75-6.73 170.85-5.55 172.4-5.55Z" opacity="1" transform="matrix(1,0,0,1,0,0)" fill="#ffffff" class="undefined-text-1" data-fill-palette-color="secondary" id="text-1"></path></svg></g></svg></g></svg></g></svg></g></svg></g></svg></g></svg></g></svg></g><defs></defs></svg><rect width="448" height="360" fill="none" stroke="none" visibility="hidden"></rect></g></svg></g></svg>